<svg width="175" height="46" viewBox="0 0 175 46" fill="none" xmlns="http://www.w3.org/2000/svg">
<path d="M44.0362 23.7C44.0362 22.464 44.3122 21.36 44.8642 20.388C45.4282 19.404 46.1902 18.642 47.1502 18.102C48.1222 17.55 49.2082 17.274 50.4082 17.274C51.8122 17.274 53.0422 17.634 54.0982 18.354C55.1542 19.074 55.8922 20.07 56.3122 21.342H53.4142C53.1262 20.742 52.7182 20.292 52.1902 19.992C51.6742 19.692 51.0742 19.542 50.3902 19.542C49.6582 19.542 49.0042 19.716 48.4282 20.064C47.8642 20.4 47.4202 20.88 47.0962 21.504C46.7842 22.128 46.6282 22.86 46.6282 23.7C46.6282 24.528 46.7842 25.26 47.0962 25.896C47.4202 26.52 47.8642 27.006 48.4282 27.354C49.0042 27.69 49.6582 27.858 50.3902 27.858C51.0742 27.858 51.6742 27.708 52.1902 27.408C52.7182 27.096 53.1262 26.64 53.4142 26.04H56.3122C55.8922 27.324 55.1542 28.326 54.0982 29.046C53.0542 29.754 51.8242 30.108 50.4082 30.108C49.2082 30.108 48.1222 29.838 47.1502 29.298C46.1902 28.746 45.4282 27.984 44.8642 27.012C44.3122 26.04 44.0362 24.936 44.0362 23.7ZM60.9846 21.576C61.3086 21.048 61.7286 20.634 62.2446 20.334C62.7726 20.034 63.3726 19.884 64.0446 19.884V22.53H63.3786C62.5866 22.53 61.9866 22.716 61.5786 23.088C61.1826 23.46 60.9846 24.108 60.9846 25.032V30H58.4646V20.028H60.9846V21.576ZM75.0119 24.798C75.0119 25.158 74.9879 25.482 74.9399 25.77H67.6499C67.7099 26.49 67.9619 27.054 68.4059 27.462C68.8499 27.87 69.3959 28.074 70.0439 28.074C70.9799 28.074 71.6459 27.672 72.0419 26.868H74.7599C74.4719 27.828 73.9199 28.62 73.1039 29.244C72.2879 29.856 71.2859 30.162 70.0979 30.162C69.1379 30.162 68.2739 29.952 67.5059 29.532C66.7499 29.1 66.1559 28.494 65.7239 27.714C65.3039 26.934 65.0939 26.034 65.0939 25.014C65.0939 23.982 65.3039 23.076 65.7239 22.296C66.1439 21.516 66.7319 20.916 67.4879 20.496C68.2439 20.076 69.1139 19.866 70.0979 19.866C71.0459 19.866 71.8919 20.07 72.6359 20.478C73.3919 20.886 73.9739 21.468 74.3819 22.224C74.8019 22.968 75.0119 23.826 75.0119 24.798ZM72.4019 24.078C72.3899 23.43 72.1559 22.914 71.6999 22.53C71.2439 22.134 70.6859 21.936 70.0259 21.936C69.4019 21.936 68.8739 22.128 68.4419 22.512C68.0219 22.884 67.7639 23.406 67.6679 24.078H72.4019ZM76.2033 24.978C76.2033 23.97 76.4013 23.076 76.7973 22.296C77.2053 21.516 77.7573 20.916 78.4533 20.496C79.1493 20.076 79.9233 19.866 80.7753 19.866C81.4233 19.866 82.0413 20.01 82.6293 20.298C83.2173 20.574 83.6853 20.946 84.0333 21.414V16.68H86.5893V30H84.0333V28.524C83.7213 29.016 83.2833 29.412 82.7193 29.712C82.1553 30.012 81.5013 30.162 80.7573 30.162C79.9173 30.162 79.1493 29.946 78.4533 29.514C77.7573 29.082 77.2053 28.476 76.7973 27.696C76.4013 26.904 76.2033 25.998 76.2033 24.978ZM84.0513 25.014C84.0513 24.402 83.9313 23.88 83.6913 23.448C83.4513 23.004 83.1273 22.668 82.7193 22.44C82.3113 22.2 81.8733 22.08 81.4053 22.08C80.9373 22.08 80.5053 22.194 80.1093 22.422C79.7133 22.65 79.3893 22.986 79.1373 23.43C78.8973 23.862 78.7773 24.378 78.7773 24.978C78.7773 25.578 78.8973 26.106 79.1373 26.562C79.3893 27.006 79.7133 27.348 80.1093 27.588C80.5173 27.828 80.9493 27.948 81.4053 27.948C81.8733 27.948 82.3113 27.834 82.7193 27.606C83.1273 27.366 83.4513 27.03 83.6913 26.598C83.9313 26.154 84.0513 25.626 84.0513 25.014ZM90.3285 18.84C89.8845 18.84 89.5125 18.702 89.2125 18.426C88.9245 18.138 88.7805 17.784 88.7805 17.364C88.7805 16.944 88.9245 16.596 89.2125 16.32C89.5125 16.032 89.8845 15.888 90.3285 15.888C90.7725 15.888 91.1385 16.032 91.4265 16.32C91.7265 16.596 91.8765 16.944 91.8765 17.364C91.8765 17.784 91.7265 18.138 91.4265 18.426C91.1385 18.702 90.7725 18.84 90.3285 18.84ZM91.5705 20.028V30H89.0505V20.028H91.5705ZM96.9943 22.098V26.922C96.9943 27.258 97.0723 27.504 97.2283 27.66C97.3963 27.804 97.6723 27.876 98.0563 27.876H99.2263V30H97.6423C95.5183 30 94.4563 28.968 94.4563 26.904V22.098H93.2683V20.028H94.4563V17.562H96.9943V20.028H99.2263V22.098H96.9943Z" fill="white"/>
<path d="M100.427 23.7C100.427 22.464 100.703 21.36 101.255 20.388C101.819 19.404 102.581 18.642 103.541 18.102C104.513 17.55 105.599 17.274 106.799 17.274C108.203 17.274 109.433 17.634 110.489 18.354C111.545 19.074 112.283 20.07 112.703 21.342H109.805C109.517 20.742 109.109 20.292 108.581 19.992C108.065 19.692 107.465 19.542 106.781 19.542C106.049 19.542 105.395 19.716 104.819 20.064C104.255 20.4 103.811 20.88 103.487 21.504C103.175 22.128 103.019 22.86 103.019 23.7C103.019 24.528 103.175 25.26 103.487 25.896C103.811 26.52 104.255 27.006 104.819 27.354C105.395 27.69 106.049 27.858 106.781 27.858C107.465 27.858 108.065 27.708 108.581 27.408C109.109 27.096 109.517 26.64 109.805 26.04H112.703C112.283 27.324 111.545 28.326 110.489 29.046C109.445 29.754 108.215 30.108 106.799 30.108C105.599 30.108 104.513 29.838 103.541 29.298C102.581 28.746 101.819 27.984 101.255 27.012C100.703 26.04 100.427 24.936 100.427 23.7ZM114.207 24.978C114.207 23.97 114.405 23.076 114.801 22.296C115.209 21.516 115.755 20.916 116.439 20.496C117.135 20.076 117.909 19.866 118.761 19.866C119.505 19.866 120.153 20.016 120.705 20.316C121.269 20.616 121.719 20.994 122.055 21.45V20.028H124.593V30H122.055V28.542C121.731 29.01 121.281 29.4 120.705 29.712C120.141 30.012 119.487 30.162 118.743 30.162C117.903 30.162 117.135 29.946 116.439 29.514C115.755 29.082 115.209 28.476 114.801 27.696C114.405 26.904 114.207 25.998 114.207 24.978ZM122.055 25.014C122.055 24.402 121.935 23.88 121.695 23.448C121.455 23.004 121.131 22.668 120.723 22.44C120.315 22.2 119.877 22.08 119.409 22.08C118.941 22.08 118.509 22.194 118.113 22.422C117.717 22.65 117.393 22.986 117.141 23.43C116.901 23.862 116.781 24.378 116.781 24.978C116.781 25.578 116.901 26.106 117.141 26.562C117.393 27.006 117.717 27.348 118.113 27.588C118.521 27.828 118.953 27.948 119.409 27.948C119.877 27.948 120.315 27.834 120.723 27.606C121.131 27.366 121.455 27.03 121.695 26.598C121.935 26.154 122.055 25.626 122.055 25.014ZM129.988 22.098V26.922C129.988 27.258 130.066 27.504 130.222 27.66C130.39 27.804 130.666 27.876 131.05 27.876H132.22V30H130.636C128.512 30 127.45 28.968 127.45 26.904V22.098H126.262V20.028H127.45V17.562H129.988V20.028H132.22V22.098H129.988ZM133.385 25.014C133.385 23.982 133.595 23.082 134.015 22.314C134.435 21.534 135.017 20.934 135.761 20.514C136.505 20.082 137.357 19.866 138.317 19.866C139.553 19.866 140.573 20.178 141.377 20.802C142.193 21.414 142.739 22.278 143.015 23.394H140.297C140.153 22.962 139.907 22.626 139.559 22.386C139.223 22.134 138.803 22.008 138.299 22.008C137.579 22.008 137.009 22.272 136.589 22.8C136.169 23.316 135.959 24.054 135.959 25.014C135.959 25.962 136.169 26.7 136.589 27.228C137.009 27.744 137.579 28.002 138.299 28.002C139.319 28.002 139.985 27.546 140.297 26.634H143.015C142.739 27.714 142.193 28.572 141.377 29.208C140.561 29.844 139.541 30.162 138.317 30.162C137.357 30.162 136.505 29.952 135.761 29.532C135.017 29.1 134.435 28.5 134.015 27.732C133.595 26.952 133.385 26.046 133.385 25.014ZM150.477 19.884C151.233 19.884 151.905 20.052 152.493 20.388C153.081 20.712 153.537 21.198 153.861 21.846C154.197 22.482 154.365 23.25 154.365 24.15V30H151.845V24.492C151.845 23.7 151.647 23.094 151.251 22.674C150.855 22.242 150.315 22.026 149.631 22.026C148.935 22.026 148.383 22.242 147.975 22.674C147.579 23.094 147.381 23.7 147.381 24.492V30H144.861V16.68H147.381V21.27C147.705 20.838 148.137 20.502 148.677 20.262C149.217 20.01 149.817 19.884 150.477 19.884ZM166.031 24.798C166.031 25.158 166.007 25.482 165.959 25.77H158.669C158.729 26.49 158.981 27.054 159.425 27.462C159.869 27.87 160.415 28.074 161.063 28.074C161.999 28.074 162.665 27.672 163.061 26.868H165.779C165.491 27.828 164.939 28.62 164.123 29.244C163.307 29.856 162.305 30.162 161.117 30.162C160.157 30.162 159.293 29.952 158.525 29.532C157.769 29.1 157.175 28.494 156.743 27.714C156.323 26.934 156.113 26.034 156.113 25.014C156.113 23.982 156.323 23.076 156.743 22.296C157.163 21.516 157.751 20.916 158.507 20.496C159.263 20.076 160.133 19.866 161.117 19.866C162.065 19.866 162.911 20.07 163.655 20.478C164.411 20.886 164.993 21.468 165.401 22.224C165.821 22.968 166.031 23.826 166.031 24.798ZM163.421 24.078C163.409 23.43 163.175 22.914 162.719 22.53C162.263 22.134 161.705 21.936 161.045 21.936C160.421 21.936 159.893 22.128 159.461 22.512C159.041 22.884 158.783 23.406 158.687 24.078H163.421ZM170.391 21.576C170.715 21.048 171.135 20.634 171.651 20.334C172.179 20.034 172.779 19.884 173.451 19.884V22.53H172.785C171.993 22.53 171.393 22.716 170.985 23.088C170.589 23.46 170.391 24.108 170.391 25.032V30H167.871V20.028H170.391V21.576Z" fill="#5CE1E6"/>
<path d="M34.7199 11.6863C32.4823 9.44863 29.6314 7.92477 26.5277 7.30741C23.424 6.69005 20.2069 7.0069 17.2833 8.2179C14.3597 9.4289 11.8608 11.4797 10.1027 14.1108C8.3446 16.742 7.40622 19.8355 7.40622 23C7.40622 26.1645 8.3446 29.2579 10.1027 31.8891C11.8608 34.5203 14.3597 36.571 17.2833 37.782C20.2069 38.993 23.424 39.3099 26.5277 38.6925C29.6314 38.0752 32.4823 36.5513 34.7199 34.3137L29.0631 28.6568C27.9443 29.7757 26.5188 30.5376 24.9669 30.8463C23.4151 31.1549 21.8066 30.9965 20.3447 30.391C18.8829 29.7855 17.6335 28.7601 16.7545 27.4445C15.8754 26.1289 15.4062 24.5822 15.4062 23C15.4062 21.4177 15.8754 19.871 16.7545 18.5554C17.6335 17.2398 18.8829 16.2144 20.3448 15.6089C21.8066 15.0034 23.4151 14.845 24.9669 15.1537C26.5188 15.4624 27.9443 16.2243 29.0631 17.3431L34.7199 11.6863Z" fill="white"/>
<path d="M34.7199 11.6863C33.2342 10.2005 31.4704 9.02198 29.5292 8.2179C27.5879 7.41383 25.5074 6.99998 23.4062 6.99998C21.3051 6.99998 19.2245 7.41383 17.2833 8.2179C15.3421 9.02198 13.5782 10.2005 12.0925 11.6863L17.7494 17.3431C18.4922 16.6003 19.3741 16.011 20.3448 15.6089C21.3154 15.2069 22.3556 15 23.4062 15C24.4568 15 25.4971 15.2069 26.4677 15.6089C27.4383 16.011 28.3202 16.6003 29.0631 17.3431L34.7199 11.6863Z" fill="#5CE1E6"/>
<circle cx="23.4062" cy="23" r="5" transform="rotate(45 23.4062 23)" fill="#5CE1E6"/>
<path d="M26.9418 26.5356C27.406 26.0713 27.7743 25.5201 28.0256 24.9134C28.2769 24.3068 28.4062 23.6566 28.4062 23C28.4062 22.3434 28.2769 21.6932 28.0256 21.0866C27.7743 20.48 27.406 19.9288 26.9418 19.4645C26.4775 19.0002 25.9263 18.6319 25.3196 18.3806C24.713 18.1294 24.0628 18 23.4062 18C22.7496 18 22.0994 18.1294 21.4928 18.3806C20.8862 18.6319 20.335 19.0002 19.8707 19.4645L23.4062 23L26.9418 26.5356Z" fill="white"/>
</svg>
