<?xml version="1.0" encoding="utf-8"?>
<svg viewBox="7.4062 7 27.3137 32" xmlns="http://www.w3.org/2000/svg">
  <path d="M34.7199 11.6863C32.4823 9.44863 29.6314 7.92477 26.5277 7.30741C23.424 6.69005 20.2069 7.0069 17.2833 8.2179C14.3597 9.4289 11.8608 11.4797 10.1027 14.1108C8.3446 16.742 7.40622 19.8355 7.40622 23C7.40622 26.1645 8.3446 29.2579 10.1027 31.8891C11.8608 34.5203 14.3597 36.571 17.2833 37.782C20.2069 38.993 23.424 39.3099 26.5277 38.6925C29.6314 38.0752 32.4823 36.5513 34.7199 34.3137L29.0631 28.6568C27.9443 29.7757 26.5188 30.5376 24.9669 30.8463C23.4151 31.1549 21.8066 30.9965 20.3447 30.391C18.8829 29.7855 17.6335 28.7601 16.7545 27.4445C15.8754 26.1289 15.4062 24.5822 15.4062 23C15.4062 21.4177 15.8754 19.871 16.7545 18.5554C17.6335 17.2398 18.8829 16.2144 20.3448 15.6089C21.8066 15.0034 23.4151 14.845 24.9669 15.1537C26.5188 15.4624 27.9443 16.2243 29.0631 17.3431L34.7199 11.6863Z" fill="white" transform="matrix(1, 0, 0, 1, 7.105427357601002e-15, 0)"/>
  <path d="M34.7199 11.6863C33.2342 10.2005 31.4704 9.02198 29.5292 8.2179C27.5879 7.41383 25.5074 6.99998 23.4062 6.99998C21.3051 6.99998 19.2245 7.41383 17.2833 8.2179C15.3421 9.02198 13.5782 10.2005 12.0925 11.6863L17.7494 17.3431C18.4922 16.6003 19.3741 16.011 20.3448 15.6089C21.3154 15.2069 22.3556 15 23.4062 15C24.4568 15 25.4971 15.2069 26.4677 15.6089C27.4383 16.011 28.3202 16.6003 29.0631 17.3431L34.7199 11.6863Z" fill="#5CE1E6" transform="matrix(1, 0, 0, 1, 7.105427357601002e-15, 0)"/>
  <circle cx="23.4062" cy="23" r="5" transform="matrix(0.7071067811865477, 0.7071067811865477, -0.7071067811865477, 0.7071067811865477, 23.118973345256478, -9.814138998260262)" fill="#5CE1E6"/>
  <path d="M26.9418 26.5356C27.406 26.0713 27.7743 25.5201 28.0256 24.9134C28.2769 24.3068 28.4062 23.6566 28.4062 23C28.4062 22.3434 28.2769 21.6932 28.0256 21.0866C27.7743 20.48 27.406 19.9288 26.9418 19.4645C26.4775 19.0002 25.9263 18.6319 25.3196 18.3806C24.713 18.1294 24.0628 18 23.4062 18C22.7496 18 22.0994 18.1294 21.4928 18.3806C20.8862 18.6319 20.335 19.0002 19.8707 19.4645L23.4062 23L26.9418 26.5356Z" fill="white" transform="matrix(1, 0, 0, 1, 7.105427357601002e-15, 0)"/>
</svg>